<?xml version="1.0" ?><!DOCTYPE svg  PUBLIC '-//W3C//DTD SVG 1.1//EN'  'http://www.w3.org/Graphics/SVG/1.1/DTD/svg11.dtd'><svg height="2048px" style="shape-rendering:geometricPrecision; text-rendering:geometricPrecision; image-rendering:optimizeQuality; fill-rule:evenodd; clip-rule:evenodd" viewBox="0 0 2048 2048" width="2048px" xml:space="preserve" xmlns="http://www.w3.org/2000/svg" xmlns:xlink="http://www.w3.org/1999/xlink"><defs><style type="text/css">
   <![CDATA[
    .fil1 {fill:none}
    .fil0 {fill:#424242}
   ]]>
  </style></defs><g id="Layer_x0020_1"><path class="fil0" d="M1255.17 904.789l-407.614 0c0,0 -5.16496,-198.645 208.964,-198.645 206.783,0 198.649,198.645 198.65,198.645zm-754.843 887.212l1.01339 0c202.22,-0.312992 407.393,-163.038 407.393,-163.038 0,0 44.2748,9.4819 164.453,9.4819 506.017,0 626.201,-445.916 626.201,-445.916l-449.093 0c0,0 -31.6311,145.469 -192.914,145.469 -221.384,0 -208.742,-230.871 -208.742,-230.871l857.072 0c41.1107,-594.561 -477.553,-679.956 -477.553,-679.956 0,0 183.293,-129.666 341.557,-129.666 250.847,-0.0011811 132.235,293.844 132.235,293.844l8.01733 8.01497c124.351,-322.674 -71.4449,-343.257 -122.335,-343.361 -7.27087,-0.0153543 -11.5843,0.387402 -11.5843,0.387402 -177.105,0 -398.496,161.291 -398.496,161.291 0,0 -264.075,-71.1544 -528.153,88.5544 -287.797,183.431 -278.312,509.188 -278.312,509.188 234.032,-335.242 559.787,-471.237 559.787,-471.237l0 22.1386c-480.72,328.728 -594.574,809.631 -623.038,907.66 -28.4445,97.9796 -9.50906,317.699 192.49,318.016zm383.306 -169.617c0,0 -308.884,187.464 -447.538,57.5693 -74.2796,-129.893 46.428,-313.833 46.428,-313.833 0,0 102.132,189.411 401.11,256.264z"/></g><rect class="fil1" height="2048" width="2048"/></svg>