<?xml version="1.0" ?><!DOCTYPE svg  PUBLIC '-//W3C//DTD SVG 1.1//EN'  'http://www.w3.org/Graphics/SVG/1.1/DTD/svg11.dtd'><svg height="2048px" style="shape-rendering:geometricPrecision; text-rendering:geometricPrecision; image-rendering:optimizeQuality; fill-rule:evenodd; clip-rule:evenodd" viewBox="0 0 2048 2048" width="2048px" xml:space="preserve" xmlns="http://www.w3.org/2000/svg" xmlns:xlink="http://www.w3.org/1999/xlink"><defs><style type="text/css">
   <![CDATA[
    .fil2 {fill:none}
    .fil1 {fill:#424242}
    .fil0 {fill:#424242;fill-rule:nonzero}
   ]]>
  </style></defs><g id="Layer_x0020_1"><path class="fil0" d="M1193.18 927.326l0 -291.114 0 -15.9378 16.0004 0 499.77 0.00708662 0 -0.0625985c14.3539,0 34.0394,9.89056 48.0237,26.3421 10.9358,12.8658 18.9603,29.9398 18.9603,49.6359l0 8.48859 -7.063 4.76103 -437.842 295.193 -4.12441 2.00079c-2.92323,0.922442 -6.74882,1.35827 -10.2661,1.35827 -3.40394,0 -7.24607,-0.451181 -10.1587,-1.29685l-4.063 -1.81181 -101.737 -64.0642 -7.50001 -4.72205 0 -8.77796z"/><path class="fil0" d="M1218.18 981.959l92.856 63.7819 0.437008 0.311811c3.9874,2.93032 9.8941,-0.103937 11.0658,-0.757087l428.652 -285.548 24.8126 -16.5284 0 29.8406 0 535.054c0,31.5673 -9.80198,55.0335 -25.4079,71.3197 -18.0343,18.8185 -43.2638,27.352 -69.8115,27.352l-471.661 0 -16.0016 0 0.0011811 -16.0004 0 -395.639 0 -16.0004 16.0004 0 0.056693 0 9.00001 2.81339z"/><path class="fil0" d="M728.659 864.068c-14.0858,0 -26.6044,3.2315 -37.5355,9.68387 -11.2984,6.66733 -21.274,16.8827 -29.902,30.6284l-0.0307087 -0.0200788c-9.02009,14.4106 -15.8669,31.454 -20.5252,51.1181 -4.74685,20.0374 -7.12441,42.6886 -7.12441,67.9536 0,25.6606 2.37756,48.4949 7.12441,68.4969 4.62048,19.4669 11.4532,36.2008 20.4886,50.2016 8.62914,13.3949 18.4158,23.3114 29.3492,29.7638 10.5165,6.20552 22.4256,9.29883 35.7213,9.29883l0 0.068504c13.8591,-0.00236221 26.1957,-3.07441 36.9933,-9.21142 10.9807,-6.23859 20.6622,-15.8055 29.0327,-28.6914 8.78623,-13.5343 15.4488,-29.9516 19.9713,-49.2426 4.64764,-19.826 6.98032,-42.6496 6.98032,-68.4544 0,-27.0473 -2.26772,-50.9457 -6.80788,-71.6871 -4.39961,-20.0941 -10.9016,-37.1587 -19.5095,-51.1831 -8.13898,-13.2532 -17.5689,-23.0752 -28.2945,-29.4662 -10.4315,-6.21378 -22.4091,-9.32481 -35.9315,-9.32599l0 0.068504z"/><path class="fil1" d="M1170.4 1768.14l0 -1488.27 0 -19.3642 -19.0004 3.67677 -866.403 167.705 -13.0004 2.51693 0 13.1705 0 1138.92 0 12.9508 12.75 2.67402 866.403 181.65 19.2508 4.03583 0 -19.6606zm-439.472 -1020.34c31.1681,-0.00354331 59.4473,6.4063 84.8079,19.2402 25.2874,12.7973 47.5122,31.8969 66.6497,57.3083l0.0307087 -0.022441c18.8658,25.011 32.9882,53.8926 42.3614,86.6505 9.24804,32.3138 13.8721,68.3575 13.8721,108.139l-0.0625985 0c0.0248032,40.8331 -4.7504,77.8489 -14.3126,111.034 -9.70631,33.6851 -24.3201,63.3709 -43.8201,89.0457 -19.8366,26.0941 -42.7748,45.7288 -68.8134,58.8756 -26.178,13.2165 -55.2248,19.8366 -87.143,19.8366l0 -0.0625985c-31.2874,-0.00236221 -59.6989,-6.38741 -85.2438,-19.1445 -25.5154,-12.7417 -48.0733,-31.774 -67.6855,-57.0863 -19.2756,-24.9414 -33.7288,-53.5796 -43.3418,-85.9241 -9.49961,-31.9689 -14.2583,-67.4315 -14.2583,-106.403 0,-41.0587 4.79292,-78.3331 14.3847,-111.815 9.69686,-33.8516 24.3378,-63.8233 43.924,-89.9068 19.8803,-26.4862 43.076,-46.3985 69.5812,-59.7308 26.6362,-13.3973 56.328,-20.0977 89.0694,-20.0977l0 0.0625985z"/></g><rect class="fil2" height="2048" width="2048"/></svg>