<svg width="124" height="30" viewBox="0 0 124 30" fill="none" xmlns="http://www.w3.org/2000/svg">
<g clip-path="url(#clip0_0_103)">
<path d="M121.75 25.9059C121.213 25.911 120.701 26.1284 120.324 26.5104C119.948 26.8924 119.738 27.408 119.74 27.9444C119.743 28.4808 119.958 28.9944 120.338 29.3728C120.718 29.7512 121.233 29.9636 121.769 29.9636C122.306 29.9636 122.82 29.7512 123.201 29.3728C123.581 28.9944 123.796 28.4808 123.798 27.9444C123.801 27.408 123.591 26.8924 123.214 26.5104C122.838 26.1284 122.325 25.911 121.789 25.9059H121.75ZM121.75 29.7313C121.398 29.7371 121.052 29.6385 120.757 29.448C120.461 29.2574 120.228 28.9833 120.088 28.6606C119.948 28.3378 119.907 27.9807 119.97 27.6345C120.033 27.2883 120.197 26.9685 120.441 26.7156C120.686 26.4627 121 26.288 121.344 26.2136C121.688 26.1392 122.046 26.1685 122.374 26.2977C122.701 26.4269 122.982 26.6503 123.183 26.9396C123.383 27.2288 123.493 27.571 123.499 27.9228V27.9527C123.509 28.4142 123.335 28.8607 123.016 29.1941C122.696 29.5275 122.258 29.7204 121.796 29.7304H121.75L121.75 29.7313ZM113.962 25.3516H109.553V18.4474C109.553 16.8011 109.524 14.6817 107.26 14.6817C104.964 14.6817 104.613 16.4755 104.613 18.3276V25.3511H100.204V11.1534H104.436V13.0937H104.495C104.919 12.3695 105.531 11.7737 106.266 11.3698C107.002 10.966 107.833 10.7691 108.671 10.8002C113.14 10.8002 113.964 13.7393 113.964 17.5629L113.962 25.3516ZM95.2295 9.21266C94.7235 9.21275 94.2288 9.0628 93.808 8.78175C93.3872 8.50071 93.0593 8.1012 92.8655 7.63375C92.6718 7.16629 92.6211 6.65189 92.7197 6.1556C92.8183 5.6593 93.0619 5.20339 93.4196 4.84553C93.7774 4.48766 94.2332 4.24392 94.7294 4.14511C95.2257 4.04631 95.7401 4.09688 96.2076 4.29044C96.6752 4.48399 97.0748 4.81184 97.356 5.23251C97.6372 5.65319 97.7873 6.1478 97.7874 6.65381C97.7875 6.98978 97.7214 7.32247 97.5928 7.6329C97.4643 7.94332 97.2759 8.22539 97.0384 8.463C96.8009 8.70061 96.5189 8.88911 96.2085 9.01774C95.8981 9.14637 95.5655 9.2126 95.2295 9.21266ZM97.4338 25.3516H93.0206V11.1534H97.4338V25.3516ZM116.16 0.00178226H90.8052C90.2297 -0.00471195 89.6752 0.217529 89.2635 0.619668C88.8518 1.02181 88.6166 1.57094 88.6096 2.14641V27.606C88.6164 28.1817 88.8514 28.7312 89.2631 29.1338C89.6748 29.5363 90.2294 29.759 90.8052 29.7529H116.16C116.736 29.7601 117.293 29.5381 117.706 29.1355C118.119 28.733 118.356 28.1828 118.364 27.606V2.14457C118.356 1.56797 118.119 1.01821 117.706 0.616076C117.292 0.213947 116.736 -0.00765944 116.16 -5.46846e-05V0.00178226ZM76.6102 14.5802C74.4059 14.5802 73.0833 16.0521 73.0833 18.1967C73.0833 20.3413 74.4054 21.8145 76.6102 21.8145C78.815 21.8145 80.1404 20.345 80.1404 18.1967C80.1404 16.0484 78.8173 14.5802 76.6102 14.5802ZM84.1991 25.3433H80.1404V23.4604H80.0802C79.571 24.1453 78.9106 24.7034 78.1504 25.0911C77.3901 25.4789 76.5506 25.6859 75.6973 25.696C71.4613 25.696 68.671 22.6389 68.671 18.3156C68.671 14.3451 71.1403 10.6992 75.1995 10.6992C77.024 10.6992 78.7282 11.1984 79.728 12.5821H79.7859V4.39804H84.1986L84.1991 25.3433ZM63.0104 16.5958C63.0189 16.2381 62.9546 15.8825 62.8216 15.5503C62.6885 15.2182 62.4894 14.9166 62.2363 14.6637C61.9833 14.4108 61.6815 14.2119 61.3493 14.0791C61.0171 13.9462 60.6614 13.8822 60.3037 13.8909C59.5334 13.843 58.7751 14.0997 58.1923 14.6057C57.6095 15.1116 57.2489 15.8264 57.1883 16.5958H63.0104ZM66.7449 22.8873C66.0124 23.7757 65.0913 24.49 64.0486 24.9786C63.0059 25.4671 61.8676 25.7177 60.7161 25.7121C56.3074 25.7121 52.7778 22.7693 52.7778 18.2123C52.7778 13.6553 56.307 10.7139 60.7161 10.7139C64.8368 10.7139 67.4209 13.653 67.4209 18.2123V19.5946H57.1883C57.3157 20.3785 57.7221 21.09 58.3327 21.598C58.9432 22.1059 59.7168 22.3761 60.5108 22.3587C61.1383 22.3548 61.7549 22.1941 62.3044 21.891C62.8539 21.588 63.3189 21.1524 63.6571 20.6237L66.7449 22.8873ZM22.9183 11.1497H27.152V13.09H27.2121C27.635 12.3655 28.2467 11.7695 28.982 11.3655C29.7172 10.9616 30.5483 10.7649 31.3866 10.7966C35.8572 10.7966 36.6802 13.738 36.6802 17.5593V25.3451H32.2715V18.4424C32.2715 16.7946 32.2412 14.6766 29.9754 14.6766C27.6838 14.6766 27.3302 16.4709 27.3302 18.3225V25.3433H22.9215L22.9183 11.1497ZM38.9158 4.39942H43.3244V16.9205L48.3209 11.1419H53.7261L47.9397 17.7149L53.6044 25.352H48.0633L43.3832 18.334H43.3253V25.3511H38.9167L38.9158 4.39942ZM16.0651 11.1483H20.4738V25.3461H16.0651V11.1483ZM18.2695 4.08989C18.7753 4.08999 19.2697 4.24006 19.6902 4.52113C20.1107 4.80221 20.4384 5.20166 20.6319 5.66899C20.8254 6.13631 20.876 6.65052 20.7773 7.1466C20.6785 7.64267 20.4349 8.09833 20.0772 8.45595C19.7196 8.81357 19.2639 9.05711 18.7678 9.15575C18.2717 9.25439 17.7575 9.20372 17.2902 9.01014C16.8229 8.81655 16.4235 8.48875 16.1425 8.06819C15.8615 7.64762 15.7115 7.15318 15.7115 6.64738C15.7115 6.31148 15.7777 5.97888 15.9062 5.66856C16.0348 5.35825 16.2232 5.07629 16.4607 4.8388C16.6983 4.60131 16.9803 4.41294 17.2906 4.28444C17.6009 4.15594 17.9336 4.08983 18.2695 4.08989ZM0.951233 4.40263H5.54037V21.1188H14.0362V25.3539H0.951233V4.40263ZM122.072 28.0634C122.147 28.0641 122.222 28.0493 122.292 28.02C122.361 27.9906 122.424 27.9472 122.476 27.8926C122.528 27.8379 122.569 27.7732 122.595 27.7023C122.621 27.6314 122.632 27.556 122.627 27.4806C122.627 27.0673 122.378 26.8698 121.866 26.8698H121.04V29.0337H121.351V28.0904H121.733L121.742 28.1019L122.334 29.0337H122.667L122.029 28.0693L122.072 28.0634ZM121.712 27.8466H121.352V27.115H121.809C122.045 27.115 122.314 27.1536 122.314 27.4627C122.314 27.8181 122.041 27.8466 121.71 27.8466" fill="black" fill-opacity="0.5"/>
</g>
<defs>
<clipPath id="clip0_0_103">
<rect width="122.847" height="30" fill="white" transform="translate(0.951233)"/>
</clipPath>
</defs>
</svg>
