<svg width="53" height="53" viewBox="0 0 53 53" fill="none" xmlns="http://www.w3.org/2000/svg">
<g filter="url(#filter0_d_0_114)">
<rect x="4" width="45" height="45" rx="22.5" fill="black" fill-opacity="0.5" shape-rendering="crispEdges"/>
<path d="M20.459 31.875H15.9238V17.2705H20.459V31.875ZM18.189 15.2783C16.7388 15.2783 15.5625 14.0771 15.5625 12.627C15.5625 11.9304 15.8392 11.2623 16.3318 10.7698C16.8243 10.2772 17.4924 10.0005 18.189 10.0005C18.8855 10.0005 19.5536 10.2772 20.0462 10.7698C20.5387 11.2623 20.8154 11.9304 20.8154 12.627C20.8154 14.0771 19.6387 15.2783 18.189 15.2783ZM37.4326 31.875H32.9072V24.7656C32.9072 23.0713 32.873 20.8984 30.5493 20.8984C28.1914 20.8984 27.8301 22.7393 27.8301 24.6436V31.875H23.2998V17.2705H27.6494V19.2627H27.7129C28.3184 18.1152 29.7974 16.9043 32.0039 16.9043C36.5938 16.9043 37.4375 19.9268 37.4375 23.8525V31.875H37.4326Z" fill="white"/>
</g>
<defs>
<filter id="filter0_d_0_114" x="0" y="0" width="53" height="53" filterUnits="userSpaceOnUse" color-interpolation-filters="sRGB">
<feFlood flood-opacity="0" result="BackgroundImageFix"/>
<feColorMatrix in="SourceAlpha" type="matrix" values="0 0 0 0 0 0 0 0 0 0 0 0 0 0 0 0 0 0 127 0" result="hardAlpha"/>
<feOffset dy="4"/>
<feGaussianBlur stdDeviation="2"/>
<feComposite in2="hardAlpha" operator="out"/>
<feColorMatrix type="matrix" values="0 0 0 0 0 0 0 0 0 0 0 0 0 0 0 0 0 0 0.25 0"/>
<feBlend mode="normal" in2="BackgroundImageFix" result="effect1_dropShadow_0_114"/>
<feBlend mode="normal" in="SourceGraphic" in2="effect1_dropShadow_0_114" result="shape"/>
</filter>
</defs>
</svg>
