<?xml version="1.0" encoding="iso-8859-1"?>
<!-- Uploaded to: SVG Repo, www.svgrepo.com, Generator: SVG Repo Mixer Tools -->
<!DOCTYPE svg PUBLIC "-//W3C//DTD SVG 1.1//EN" "http://www.w3.org/Graphics/SVG/1.1/DTD/svg11.dtd">
<svg fill="#000000" version="1.1" id="Capa_1" xmlns="http://www.w3.org/2000/svg" xmlns:xlink="http://www.w3.org/1999/xlink" 
	 width="800px" height="800px" viewBox="0 0 409.623 409.623"
	 xml:space="preserve">
<g>
	<g>
		<path d="M308.33,262.257c-7.91,30.186-18.883,47.445-29.559,61.602c-1.453,1.928-1.068,4.67,0.857,6.123
			c0.787,0.594,1.713,0.881,2.629,0.881c1.326,0,2.635-0.6,3.494-1.74c11.217-14.871,22.742-32.998,31.033-64.648
			c0.613-2.336-0.783-4.725-3.119-5.338C311.326,258.522,308.941,259.923,308.33,262.257z"/>
		<path d="M321.736,216.942c0.145,0.014,0.287,0.021,0.432,0.021c2.221,0,4.123-1.688,4.344-3.945
			c5.139-52.391-7.898-101.366-37.699-141.627c-1.436-1.939-4.174-2.35-6.115-0.913c-1.939,1.436-2.35,4.174-0.914,6.115
			c28.49,38.491,40.949,85.372,36.027,135.572C317.576,214.569,319.332,216.708,321.736,216.942z"/>
		<path d="M259.791,50.403c-56.357,0-108.513,38.108-129.783,94.825c-0.848,2.261,0.299,4.779,2.558,5.627
			c2.266,0.848,4.78-0.297,5.628-2.558c19.997-53.324,68.862-89.151,121.596-89.151c77.795,0,141.09,63.292,141.09,141.089
			s-63.293,141.09-141.09,141.09c-2.416,0-4.371,1.955-4.371,4.371s1.955,4.371,4.371,4.371
			c82.615,0,149.832-67.215,149.832-149.833C409.623,117.618,342.406,50.403,259.791,50.403z"/>
		<path d="M387.52,210.315c-1.365-1.994-4.09-2.498-6.078-1.133c-22.719,15.584-73.051,25.654-128.229,25.654
			c-2.416,0-4.371,1.957-4.371,4.371c0,2.416,1.955,4.373,4.371,4.373c56.822,0,109.098-10.672,133.174-27.189
			C388.379,215.026,388.887,212.308,387.52,210.315z"/>
		<path d="M207.783,209.808c-3.819-6.775-12.899-12.082-20.677-12.082h-18.671c-8.648,0-15.686,7.037-15.686,15.686v48.652
			c0,8.648,7.038,15.688,15.686,15.688h39.604c2.414,0,4.371-1.957,4.371-4.371c0-2.416-1.957-4.373-4.371-4.373h-39.604
			c-3.828,0-6.943-3.113-6.943-6.943v-48.652c0-3.828,3.116-6.945,6.943-6.945h18.671c4.665,0,10.77,3.568,13.06,7.633
			l29.059,51.568c2.705,4.799,4.992,13.51,4.992,19.025v38.473c0,3.826-3.115,6.941-6.943,6.941h-12.311
			c-2.416,0-4.371,1.957-4.371,4.371c0,2.416,1.955,4.371,4.371,4.371h12.311c8.648,0,15.686-7.033,15.686-15.684v-38.473
			c0-6.99-2.686-17.232-6.117-23.318L207.783,209.808z"/>
		<path d="M62.454,309.743c-4.579,0-9.054,1.262-12.936,3.65c-2.058,1.264-2.7,3.955-1.434,6.012
			c1.263,2.057,3.957,2.703,6.013,1.432c2.504-1.539,5.395-2.354,8.356-2.354c8.822,0,15.998,7.176,15.998,15.992
			c0,8.822-7.176,15.998-15.998,15.998c-8.818,0-15.994-7.176-15.994-15.998c0-2.414-1.957-4.371-4.371-4.371H15.685
			c-3.828,0-6.941-3.113-6.941-6.941V182.857c0-3.83,3.114-6.943,6.941-6.943h109.754c3.83,0,6.945,3.114,6.945,6.943v19.236
			c0,2.416,1.957,4.373,4.372,4.373s4.372-1.957,4.372-4.373v-19.232c0-8.65-7.038-15.687-15.688-15.687H15.685
			C7.036,167.174,0,174.211,0,182.861v140.306c0,8.648,7.036,15.684,15.685,15.684h22.443c2.072,11.561,12.181,20.369,24.326,20.369
			c13.643,0,24.741-11.098,24.741-24.74C87.194,320.839,76.096,309.743,62.454,309.743z"/>
		<path d="M177.489,309.743c-4.581,0-9.056,1.262-12.938,3.648c-2.058,1.268-2.7,3.957-1.434,6.014
			c1.264,2.057,3.957,2.703,6.013,1.432c2.504-1.539,5.395-2.354,8.358-2.354c8.818,0,15.994,7.176,15.994,15.994
			c0,8.82-7.176,15.996-15.994,15.996c-8.82,0-15.996-7.176-15.996-15.996c0-2.416-1.957-4.371-4.371-4.371H96.021
			c-2.415,0-4.371,1.955-4.371,4.371s1.957,4.371,4.371,4.371h57.14c2.072,11.559,12.18,20.367,24.328,20.367
			c13.641,0,24.733-11.098,24.733-24.738C202.222,320.839,191.129,309.743,177.489,309.743z"/>
	</g>
</g>
</svg>