<?xml version="1.0" encoding="iso-8859-1"?>
<!-- Uploaded to: SVG Repo, www.svgrepo.com, Generator: SVG Repo Mixer Tools -->
<svg fill="#000000" version="1.1" id="Layer_1" xmlns="http://www.w3.org/2000/svg" xmlns:xlink="http://www.w3.org/1999/xlink" 
	 viewBox="0 0 496 496" xml:space="preserve">
<g>
	<g>
		<g>
			<path d="M248,242.344c17.648,0,32-14.352,32-32s-14.352-32-32-32s-32,14.352-32,32S230.352,242.344,248,242.344z M248,194.344
				c8.824,0,16,7.176,16,16c0,8.824-7.176,16-16,16c-8.824,0-16-7.176-16-16C232,201.52,239.176,194.344,248,194.344z"/>
			<rect x="448" y="2.344" width="16" height="32"/>
			<rect x="464" y="34.344" width="32" height="16"/>
			<path d="M464,50.344h-16v28.84c-25.456-22.824-58.96-36.84-95.768-36.84c-38.4,0-74.504,14.952-101.656,42.112L248,87.032
				l-2.576-2.576c-27.16-27.16-63.256-42.112-101.656-42.112C64.496,42.344,0,106.84,0,186.112c0,38.4,14.952,74.504,42.112,101.656
				l26.576,26.576H0v104h80.168v-14.272l30.432,6.088l53.976,0.08L248,493.656l205.888-205.888
				C481.048,260.608,496,224.512,496,186.112c0-40.784-17.152-77.576-44.528-103.768H464V50.344z M64.168,402.344H16v-72h16v56h16
				v-56h16.168V402.344z M112.96,394.312l-32.792-6.56v-41.44h58.424l25.176-16.784l64.68-22.696
				c2.264-0.784,4.696-0.632,6.832,0.456c2.144,1.088,3.704,2.952,4.4,5.248c1.208,3.976-0.576,8.272-4.256,10.224l-44.704,23.768
				l31.56,15.784h75.936l27.48-15.016c1.712-0.936,3.688-1.144,5.536-0.496c1.856,0.616,3.336,1.944,4.144,3.728
				c1.56,3.448,0.128,7.456-3.256,9.128l-38.544,19.016l-78.184,15.64H112.96z M80.168,330.312v-4.488l4.488,4.488H80.168z
				 M199.808,238.736c-2.648-4.48-4.656-9.32-5.968-14.392l-1.552-6H176v-16h16.288l1.544-6c1.312-5.072,3.32-9.912,5.968-14.392
				l3.152-5.344l-11.52-11.52l11.312-11.312l11.52,11.52l5.344-3.152c4.48-2.648,9.32-4.656,14.392-5.968l6-1.544v-16.288h16v16.288
				l6,1.544c5.072,1.312,9.912,3.32,14.392,5.968l5.344,3.152l11.52-11.52l11.312,11.312l-11.52,11.52l3.152,5.344
				c2.648,4.48,4.656,9.32,5.968,14.392l1.544,6H320v16h-16.288l-1.544,6c-1.312,5.072-3.32,9.912-5.968,14.392l-3.152,5.344
				l11.52,11.52l-11.312,11.312l-11.52-11.52l-5.344,3.152c-4.48,2.648-9.32,4.656-14.392,5.968l-6,1.544v16.288h-16v-16.288
				l-6-1.544c-5.072-1.312-9.912-3.32-14.392-5.968l-5.344-3.152l-11.52,11.52L191.432,255.6l11.52-11.52L199.808,238.736z
				 M267.992,346.312l8.024-20.072c1.712-4.28,8.168-5.08,10.864-1.328c1.192,1.656,1.504,3.712,0.856,5.64l-5.304,15.76H267.992z
				 M480,186.112c0,34.128-13.288,66.208-37.424,90.344L248,471.032l-60.76-60.76l29.72,0.04l80.784-16.16l41.456-20.16
				c11.168-5.504,15.888-18.72,10.76-30.072c-2.632-5.8-7.6-10.28-13.648-12.304c-6.024-2.016-12.704-1.424-18.28,1.624
				l-17.552,9.592l2.416-7.176c2.28-6.776,1.16-14.28-3.016-20.088c-4.168-5.808-10.92-9.264-18.064-9.264
				c-9.152,0-17.256,5.488-20.656,13.984l-10.4,26.016h-24.688l-0.44-0.216l17.296-9.192c10.424-5.52,15.496-17.72,12.072-29
				c-1.104-3.648-3.048-6.848-5.552-9.552H272v-20.176c2.384-0.84,4.712-1.808,6.984-2.888l14.272,14.264l33.936-33.936
				l-14.264-14.272c1.088-2.272,2.048-4.6,2.888-6.984H336v-48h-20.176c-0.84-2.384-1.808-4.712-2.888-6.984l14.264-14.272
				l-33.936-33.936l-14.272,14.264c-2.272-1.088-4.6-2.048-6.984-2.888v-20.192h-48v20.176c-2.384,0.84-4.712,1.808-6.984,2.888
				l-14.272-14.264l-33.936,33.936l14.264,14.272c-1.088,2.272-2.048,4.6-2.888,6.984H160v48h20.176
				c0.84,2.384,1.808,4.712,2.888,6.984L168.8,255.592l33.936,33.936l14.272-14.264c2.272,1.088,4.6,2.048,6.984,2.888v13.376
				c-0.28,0.088-0.568,0.104-0.84,0.208L157.52,314.76l-23.776,15.544H107.28l-53.856-53.856C29.288,252.32,16,220.232,16,186.112
				c0-70.456,57.312-127.768,127.768-127.768c34.128,0,66.208,13.288,90.344,37.424L248,109.656l13.888-13.888
				c24.136-24.136,56.224-37.424,90.344-37.424C422.688,58.344,480,115.656,480,186.112z"/>
			<rect x="416" y="34.344" width="32" height="16"/>
			<rect x="96" y="90.344" width="16" height="32"/>
			<rect x="112" y="122.344" width="32" height="16"/>
			<rect x="96" y="138.344" width="16" height="32"/>
			<rect x="64" y="122.344" width="32" height="16"/>
			<rect x="368" y="202.344" width="16" height="16"/>
			<rect x="384" y="218.344" width="16" height="16"/>
			<rect x="368" y="234.344" width="16" height="16"/>
			<rect x="352" y="218.344" width="16" height="16"/>
		</g>
	</g>
</g>
</svg>