<svg xmlns="http://www.w3.org/2000/svg" viewBox="0 0 64 64" id="money-transaction"><path d="M44.61 32c0-6.95-5.66-12.61-12.61-12.61-6.95.01-12.6 5.66-12.6 12.61 0 6.95 5.65 12.61 12.61 12.61 6.94 0 12.6-5.66 12.6-12.61zm-23.27 0c0-5.88 4.79-10.67 10.67-10.67S42.68 26.12 42.68 32s-4.79 10.67-10.67 10.67c-5.89 0-10.67-4.79-10.67-10.67z"></path><path d="M34.79 36.91c.35-.29.61-.64.8-1.04.19-.4.28-.85.28-1.35 0-.52-.08-.95-.25-1.31-.17-.35-.39-.65-.67-.9-.27-.25-.59-.45-.94-.61-.35-.16-.71-.31-1.08-.44-.37-.13-.73-.26-1.08-.38a4.8 4.8 0 0 1-.94-.44c-.27-.17-.5-.38-.67-.63-.16-.25-.24-.55-.24-.92 0-.24.04-.46.12-.67.08-.2.22-.38.4-.52.18-.14.42-.26.71-.34.29-.08.65-.12 1.06-.12.36 0 .69.04.99.12a6.456 6.456 0 0 1 1.34.52c.15.08.26.12.32.12.04 0 .08-.01.11-.04.03-.02.06-.06.07-.11.02-.05.03-.12.04-.2.01-.09.01-.19.01-.31 0-.09 0-.18-.01-.25s-.02-.14-.03-.19c-.01-.06-.03-.1-.05-.15a.603.603 0 0 0-.11-.14c-.05-.05-.15-.11-.29-.18-.14-.07-.3-.14-.48-.19-.18-.06-.36-.11-.56-.16-.2-.05-.39-.08-.58-.1l.2-1.85c0-.05-.01-.09-.02-.13-.01-.04-.04-.07-.09-.1a.474.474 0 0 0-.2-.06c-.09-.01-.2-.02-.34-.02-.13 0-.23 0-.31.01-.07.01-.13.03-.18.05-.04.02-.07.05-.09.09-.02.03-.03.07-.03.11l-.18 1.87c-.57.04-1.08.14-1.51.31-.43.17-.79.39-1.07.66s-.5.58-.64.94-.21.74-.21 1.16c0 .52.08.95.25 1.31.17.35.39.65.66.9s.58.45.93.62c.35.17.7.31 1.06.44.36.13.71.26 1.06.38.35.13.66.28.93.45.27.18.49.39.66.63.17.24.25.55.25.91 0 .59-.23 1.06-.68 1.41s-1.12.52-1.99.52a5.182 5.182 0 0 1-2.16-.44c-.24-.11-.44-.21-.59-.3-.15-.09-.26-.13-.34-.13-.06 0-.1.01-.14.03-.04.02-.07.06-.1.12-.02.06-.04.13-.06.22-.01.09-.02.2-.02.34 0 .18.01.33.04.43.02.1.07.19.13.25s.17.13.3.21c.14.07.31.14.5.21.2.07.42.13.67.19.25.06.53.11.82.14l-.21 2c-.01.05-.01.09 0 .13.02.04.05.07.1.09.05.02.12.04.2.06s.2.02.34.02c.12 0 .22-.01.3-.02.08-.01.14-.03.18-.05.04-.02.07-.05.09-.08.02-.03.03-.07.03-.11l.2-2.01a5.7 5.7 0 0 0 1.67-.31c.55-.15.97-.38 1.32-.67z"></path><path d="M63.72 47.45 52.59 36.34a.972.972 0 0 0-1.66.69v3.71h-5.04c1.6-2.53 2.54-5.52 2.54-8.73 0-6.33-3.6-11.82-8.86-14.57l.01-8c0-.26-.1-.5-.28-.69a.976.976 0 0 0-.69-.28H13.07V4.76a.972.972 0 0 0-1.66-.69L.28 15.18a.993.993 0 0 0 0 1.38l11.13 11.11a.993.993 0 0 0 1.06.21c.36-.15.6-.5.6-.9v-3.7h5.04c-1.6 2.53-2.54 5.52-2.54 8.73 0 6.33 3.6 11.82 8.86 14.56l.01 7.99c0 .54.43.97.97.97h25.52v3.71c0 .39.24.75.6.9.12.05.25.07.37.07.25 0 .5-.1.69-.28l11.13-11.11c.18-.18.28-.43.28-.69 0-.26-.1-.5-.28-.68zM12.1 21.33c-.54 0-.97.43-.97.97v2.34l-8.79-8.77 8.79-8.77v2.34c0 .54.43.97.97.97h25.53l-.01 6.18c-1.76-.64-3.65-1.01-5.63-1.01-4.99 0-9.45 2.24-12.47 5.76H12.1zM17.52 32c0-7.99 6.5-14.49 14.49-14.49S46.5 24.01 46.5 32 40 46.49 32.01 46.49c-8 0-14.49-6.5-14.49-14.49zm35.35 24.9v-2.34c0-.54-.43-.97-.97-.97H26.38l-.01-6.18c1.76.64 3.65 1.01 5.63 1.01 4.98 0 9.45-2.24 12.46-5.75h7.44c.54 0 .97-.43.97-.97v-2.34l8.78 8.77-8.78 8.77z"></path></svg>